<?xml version="1.0" encoding="UTF-8"?>
<svg xmlns="http://www.w3.org/2000/svg" viewBox="0 0 512 512" width="512" height="512">
  <defs>
    <linearGradient id="bg" x1="0" y1="0" x2="1" y2="1">
      <stop offset="0" stop-color="#FF8A5C"></stop>
      <stop offset="1" stop-color="#FF4A1C"></stop>
    </linearGradient>
    <radialGradient id="rim" cx="0.5" cy="0.5" r="0.5">
      <stop offset="0.8" stop-color="#fff" stop-opacity="0"></stop>
      <stop offset="1" stop-color="#fff" stop-opacity="0.35"></stop>
    </radialGradient>
  </defs>
  <rect width="512" height="512" rx="112" fill="url(#bg)"></rect>
  <rect width="512" height="512" rx="112" fill="url(#rim)" opacity="0.5"></rect>
  <g transform="translate(256 256)">
    
    <g>
      <path d="M0 0 L0 -150 A150 150 0 0 1 129.9 -75 Z" fill="#FFE4B5"></path>
      <path d="M0 0 L129.9 -75 A150 150 0 0 1 129.9 75 Z" fill="#B1E0C6"></path>
      <path d="M0 0 L129.9 75 A150 150 0 0 1 0 150 Z" fill="#FFC83D"></path>
      <path d="M0 0 L0 150 A150 150 0 0 1 -129.9 75 Z" fill="#FFAA7A"></path>
      <path d="M0 0 L-129.9 75 A150 150 0 0 1 -129.9 -75 Z" fill="#2E7D6B"></path>
      <path d="M0 0 L-129.9 -75 A150 150 0 0 1 0 -150 Z" fill="#FFF1D6"></path>
    </g>
    <circle r="150" fill="none" stroke="#fff" stroke-width="6" opacity="0.9"></circle>
    <circle r="42" fill="#1A1A1A"></circle>
    <circle r="42" fill="none" stroke="#fff" stroke-width="4"></circle>
    <text y="8" font-family="-apple-system, system-ui, sans-serif" font-size="28" font-weight="800" fill="#fff" text-anchor="middle">♻</text>
  </g>
  
  <path d="M256 68 L236 108 L276 108 Z" fill="#fff"></path>
</svg>