<?xml version="1.0" encoding="UTF-8"?>
<svg xmlns="http://www.w3.org/2000/svg" viewBox="0 0 192 192" width="192" height="192">
  <defs>
    <linearGradient id="bg" x1="0" y1="0" x2="1" y2="1">
      <stop offset="0" stop-color="#FF8A5C"></stop>
      <stop offset="1" stop-color="#FF4A1C"></stop>
    </linearGradient>
  </defs>
  <rect width="192" height="192" rx="42" fill="url(#bg)"></rect>
  <g transform="translate(96 96)">
    <g>
      <path d="M0 0 L0 -56 A56 56 0 0 1 48.5 -28 Z" fill="#FFE4B5"></path>
      <path d="M0 0 L48.5 -28 A56 56 0 0 1 48.5 28 Z" fill="#B1E0C6"></path>
      <path d="M0 0 L48.5 28 A56 56 0 0 1 0 56 Z" fill="#FFC83D"></path>
      <path d="M0 0 L0 56 A56 56 0 0 1 -48.5 28 Z" fill="#FFAA7A"></path>
      <path d="M0 0 L-48.5 28 A56 56 0 0 1 -48.5 -28 Z" fill="#2E7D6B"></path>
      <path d="M0 0 L-48.5 -28 A56 56 0 0 1 0 -56 Z" fill="#FFF1D6"></path>
    </g>
    <circle r="56" fill="none" stroke="#fff" stroke-width="3"></circle>
    <circle r="16" fill="#1A1A1A"></circle>
  </g>
  <path d="M96 26 L88 42 L104 42 Z" fill="#fff"></path>
</svg>